<svg width="358" height="717" viewBox="0 0 358 717" fill="none" xmlns="http://www.w3.org/2000/svg">
<g clip-path="url(#clip0_4112_13327)">
<rect x="40" y="22" width="1" height="695" fill="url(#paint0_linear_4112_13327)"/>
<rect x="166" y="22" width="1" height="695" fill="#D9D9D9" fill-opacity="0.5"/>
<rect x="246" y="22" width="1" height="695" fill="#D9D9D9" fill-opacity="0.5"/>
<rect x="86" y="22" width="1" height="695" fill="url(#paint1_linear_4112_13327)"/>
<rect x="212" y="22" width="1" height="695" fill="#D9D9D9" fill-opacity="0.5"/>
<rect x="292" y="22" width="1" height="695" fill="#D9D9D9" fill-opacity="0.5"/>
<rect x="149" y="22" width="1" height="695" fill="#D9D9D9" fill-opacity="0.5"/>
<rect x="229" y="22" width="1" height="695" fill="#D9D9D9" fill-opacity="0.5"/>
<rect x="103" y="22" width="1" height="695" fill="#D9D9D9" fill-opacity="0.5"/>
<rect x="0.5" y="55.5" width="332" height="629" stroke="white" stroke-opacity="0.5"/>
<path d="M314.136 20.1591C313.386 20.1591 312.718 20.0303 312.131 19.7727C311.547 19.5152 311.083 19.1572 310.739 18.6989C310.398 18.2367 310.212 17.7008 310.182 17.0909H311.614C311.644 17.4659 311.773 17.7898 312 18.0625C312.227 18.3314 312.525 18.5398 312.892 18.6875C313.259 18.8352 313.667 18.9091 314.114 18.9091C314.614 18.9091 315.057 18.822 315.443 18.6477C315.83 18.4735 316.133 18.2311 316.352 17.9205C316.572 17.6098 316.682 17.25 316.682 16.8409C316.682 16.4129 316.576 16.036 316.364 15.7102C316.152 15.3807 315.841 15.1231 315.432 14.9375C315.023 14.7519 314.523 14.6591 313.932 14.6591H313V13.4091H313.932C314.394 13.4091 314.799 13.3258 315.148 13.1591C315.5 12.9924 315.775 12.7576 315.972 12.4545C316.172 12.1515 316.273 11.7955 316.273 11.3864C316.273 10.9924 316.186 10.6496 316.011 10.358C315.837 10.0663 315.591 9.83901 315.273 9.67614C314.958 9.51326 314.587 9.43182 314.159 9.43182C313.758 9.43182 313.379 9.50568 313.023 9.65341C312.67 9.79735 312.383 10.0076 312.159 10.2841C311.936 10.5568 311.814 10.8864 311.795 11.2727H310.432C310.455 10.6629 310.638 10.1288 310.983 9.67045C311.328 9.20833 311.778 8.84848 312.335 8.59091C312.896 8.33333 313.511 8.20455 314.182 8.20455C314.902 8.20455 315.519 8.35038 316.034 8.64205C316.549 8.92992 316.945 9.31061 317.222 9.78409C317.498 10.2576 317.636 10.7689 317.636 11.3182C317.636 11.9735 317.464 12.5322 317.119 12.9943C316.778 13.4564 316.314 13.7765 315.727 13.9545V14.0455C316.462 14.1667 317.036 14.4792 317.449 14.983C317.862 15.483 318.068 16.1023 318.068 16.8409C318.068 17.4735 317.896 18.0417 317.551 18.5455C317.21 19.0455 316.744 19.4394 316.153 19.7273C315.563 20.0152 314.89 20.1591 314.136 20.1591ZM324.097 8.20455C324.574 8.20833 325.051 8.29924 325.528 8.47727C326.006 8.6553 326.441 8.95076 326.835 9.36364C327.229 9.77273 327.545 10.3314 327.784 11.0398C328.023 11.7481 328.142 12.6364 328.142 13.7045C328.142 14.7386 328.044 15.6572 327.847 16.4602C327.653 17.2595 327.373 17.9337 327.006 18.483C326.642 19.0322 326.199 19.4489 325.676 19.733C325.157 20.017 324.57 20.1591 323.915 20.1591C323.263 20.1591 322.682 20.0303 322.17 19.7727C321.663 19.5114 321.246 19.1496 320.92 18.6875C320.598 18.2216 320.392 17.6818 320.301 17.0682H321.688C321.812 17.6023 322.061 18.0436 322.432 18.392C322.807 18.7367 323.301 18.9091 323.915 18.9091C324.813 18.9091 325.521 18.517 326.04 17.733C326.563 16.9489 326.824 15.8409 326.824 14.4091H326.733C326.521 14.7273 326.269 15.0019 325.977 15.233C325.686 15.464 325.362 15.642 325.006 15.767C324.65 15.892 324.271 15.9545 323.869 15.9545C323.203 15.9545 322.591 15.7898 322.034 15.4602C321.481 15.1269 321.038 14.6705 320.705 14.0909C320.375 13.5076 320.21 12.8409 320.21 12.0909C320.21 11.3788 320.369 10.7273 320.688 10.1364C321.009 9.54167 321.46 9.06818 322.04 8.71591C322.623 8.36364 323.309 8.19318 324.097 8.20455ZM324.097 9.45455C323.619 9.45455 323.189 9.57386 322.807 9.8125C322.428 10.0473 322.127 10.3655 321.903 10.767C321.684 11.1648 321.574 11.6061 321.574 12.0909C321.574 12.5758 321.68 13.017 321.892 13.4148C322.108 13.8087 322.402 14.1231 322.773 14.358C323.148 14.589 323.574 14.7045 324.051 14.7045C324.411 14.7045 324.746 14.6345 325.057 14.4943C325.367 14.3504 325.638 14.1553 325.869 13.9091C326.104 13.6591 326.288 13.3769 326.42 13.0625C326.553 12.7443 326.619 12.4129 326.619 12.0682C326.619 11.6136 326.509 11.1875 326.29 10.7898C326.074 10.392 325.775 10.0701 325.392 9.82386C325.013 9.57765 324.581 9.45455 324.097 9.45455ZM334.172 20.1591C333.316 20.1591 332.587 19.9261 331.984 19.4602C331.382 18.9905 330.922 18.3106 330.604 17.4205C330.286 16.5265 330.126 15.447 330.126 14.1818C330.126 12.9242 330.286 11.8504 330.604 10.9602C330.926 10.0663 331.388 9.38447 331.99 8.91477C332.596 8.44129 333.323 8.20455 334.172 8.20455C335.02 8.20455 335.746 8.44129 336.348 8.91477C336.954 9.38447 337.416 10.0663 337.734 10.9602C338.056 11.8504 338.217 12.9242 338.217 14.1818C338.217 15.447 338.058 16.5265 337.74 17.4205C337.422 18.3106 336.962 18.9905 336.359 19.4602C335.757 19.9261 335.028 20.1591 334.172 20.1591ZM334.172 18.9091C335.02 18.9091 335.679 18.5 336.149 17.6818C336.619 16.8636 336.854 15.697 336.854 14.1818C336.854 13.1742 336.746 12.3163 336.53 11.608C336.318 10.8996 336.011 10.3598 335.609 9.98864C335.212 9.61742 334.732 9.43182 334.172 9.43182C333.331 9.43182 332.674 9.84659 332.2 10.6761C331.727 11.5019 331.49 12.6705 331.49 14.1818C331.49 15.1894 331.596 16.0455 331.808 16.75C332.02 17.4545 332.325 17.9905 332.723 18.358C333.125 18.7254 333.607 18.9091 334.172 18.9091ZM340.399 23.2727V11.2727H341.695V12.6591H341.854C341.952 12.5076 342.089 12.3144 342.263 12.0795C342.441 11.8409 342.695 11.6288 343.024 11.4432C343.357 11.2538 343.808 11.1591 344.376 11.1591C345.111 11.1591 345.759 11.3428 346.32 11.7102C346.88 12.0777 347.318 12.5985 347.632 13.2727C347.946 13.947 348.104 14.7424 348.104 15.6591C348.104 16.5833 347.946 17.3845 347.632 18.0625C347.318 18.7367 346.882 19.2595 346.325 19.6307C345.768 19.9981 345.126 20.1818 344.399 20.1818C343.839 20.1818 343.39 20.089 343.053 19.9034C342.715 19.714 342.456 19.5 342.274 19.2614C342.092 19.0189 341.952 18.8182 341.854 18.6591H341.74V23.2727H340.399ZM341.717 15.6364C341.717 16.2955 341.814 16.8769 342.007 17.3807C342.2 17.8807 342.482 18.2727 342.854 18.5568C343.225 18.8371 343.679 18.9773 344.217 18.9773C344.778 18.9773 345.246 18.8295 345.621 18.5341C346 18.2348 346.284 17.8333 346.473 17.3295C346.666 16.822 346.763 16.2576 346.763 15.6364C346.763 15.0227 346.668 14.4697 346.479 13.9773C346.293 13.4811 346.011 13.089 345.632 12.8011C345.257 12.5095 344.786 12.3636 344.217 12.3636C343.672 12.3636 343.214 12.5019 342.842 12.7784C342.471 13.0511 342.191 13.4337 342.001 13.9261C341.812 14.4148 341.717 14.9848 341.717 15.6364ZM350.79 11.2727L352.881 14.8409L354.972 11.2727H356.517L353.699 15.6364L356.517 20H354.972L352.881 16.6136L350.79 20H349.244L352.017 15.6364L349.244 11.2727H350.79Z" fill="white"/>
<path d="M47.9318 20.1591C47.1515 20.1591 46.4621 20.0208 45.8636 19.7443C45.2689 19.464 44.8049 19.0795 44.4716 18.5909C44.1383 18.0985 43.9735 17.5379 43.9773 16.9091C43.9735 16.4167 44.0701 15.9621 44.267 15.5455C44.464 15.125 44.733 14.7746 45.0739 14.4943C45.4186 14.2102 45.803 14.0303 46.2273 13.9545V13.8864C45.6705 13.7424 45.2273 13.4299 44.8977 12.9489C44.5682 12.464 44.4053 11.9129 44.4091 11.2955C44.4053 10.7045 44.5549 10.1761 44.858 9.71023C45.161 9.24432 45.5777 8.87689 46.108 8.60795C46.642 8.33901 47.25 8.20455 47.9318 8.20455C48.6061 8.20455 49.2083 8.33901 49.7386 8.60795C50.2689 8.87689 50.6856 9.24432 50.9886 9.71023C51.2955 10.1761 51.4508 10.7045 51.4545 11.2955C51.4508 11.9129 51.2822 12.464 50.9489 12.9489C50.6193 13.4299 50.1818 13.7424 49.6364 13.8864V13.9545C50.0568 14.0303 50.4356 14.2102 50.7727 14.4943C51.1098 14.7746 51.3788 15.125 51.5795 15.5455C51.7803 15.9621 51.8826 16.4167 51.8864 16.9091C51.8826 17.5379 51.7121 18.0985 51.375 18.5909C51.0417 19.0795 50.5777 19.464 49.983 19.7443C49.392 20.0208 48.7083 20.1591 47.9318 20.1591ZM47.9318 18.9091C48.4583 18.9091 48.9129 18.8239 49.2955 18.6534C49.678 18.483 49.9735 18.2424 50.1818 17.9318C50.3902 17.6212 50.4962 17.2576 50.5 16.8409C50.4962 16.4015 50.3826 16.0133 50.1591 15.6761C49.9356 15.339 49.6307 15.0739 49.2443 14.8807C48.8617 14.6875 48.4242 14.5909 47.9318 14.5909C47.4356 14.5909 46.9924 14.6875 46.6023 14.8807C46.2159 15.0739 45.911 15.339 45.6875 15.6761C45.4678 16.0133 45.3598 16.4015 45.3636 16.8409C45.3598 17.2576 45.4602 17.6212 45.6648 17.9318C45.8731 18.2424 46.1705 18.483 46.5568 18.6534C46.9432 18.8239 47.4015 18.9091 47.9318 18.9091ZM47.9318 13.3864C48.3485 13.3864 48.7178 13.303 49.0398 13.1364C49.3655 12.9697 49.6212 12.7367 49.8068 12.4375C49.9924 12.1383 50.0871 11.7879 50.0909 11.3864C50.0871 10.9924 49.9943 10.6496 49.8125 10.358C49.6307 10.0625 49.3788 9.83523 49.0568 9.67614C48.7348 9.51326 48.3598 9.43182 47.9318 9.43182C47.4962 9.43182 47.1155 9.51326 46.7898 9.67614C46.464 9.83523 46.2121 10.0625 46.0341 10.358C45.8561 10.6496 45.7689 10.9924 45.7727 11.3864C45.7689 11.7879 45.858 12.1383 46.0398 12.4375C46.2254 12.7367 46.4811 12.9697 46.8068 13.1364C47.1326 13.303 47.5076 13.3864 47.9318 13.3864ZM57.9957 20.1591C57.2457 20.1591 56.5772 20.0303 55.9901 19.7727C55.4067 19.5152 54.9427 19.1572 54.598 18.6989C54.2571 18.2367 54.0715 17.7008 54.0412 17.0909H55.473C55.5033 17.4659 55.6321 17.7898 55.8594 18.0625C56.0866 18.3314 56.384 18.5398 56.7514 18.6875C57.1188 18.8352 57.526 18.9091 57.973 18.9091C58.473 18.9091 58.9162 18.822 59.3026 18.6477C59.6889 18.4735 59.992 18.2311 60.2116 17.9205C60.4313 17.6098 60.5412 17.25 60.5412 16.8409C60.5412 16.4129 60.4351 16.036 60.223 15.7102C60.0109 15.3807 59.7003 15.1231 59.2912 14.9375C58.8821 14.7519 58.3821 14.6591 57.7912 14.6591H56.8594V13.4091H57.7912C58.2533 13.4091 58.6586 13.3258 59.0071 13.1591C59.3594 12.9924 59.634 12.7576 59.831 12.4545C60.0317 12.1515 60.1321 11.7955 60.1321 11.3864C60.1321 10.9924 60.045 10.6496 59.8707 10.358C59.6965 10.0663 59.4503 9.83901 59.1321 9.67614C58.8177 9.51326 58.4465 9.43182 58.0185 9.43182C57.617 9.43182 57.2382 9.50568 56.8821 9.65341C56.5298 9.79735 56.242 10.0076 56.0185 10.2841C55.795 10.5568 55.6738 10.8864 55.6548 11.2727H54.2912C54.3139 10.6629 54.4976 10.1288 54.8423 9.67045C55.187 9.20833 55.6378 8.84848 56.1946 8.59091C56.7552 8.33333 57.3707 8.20455 58.0412 8.20455C58.7609 8.20455 59.3783 8.35038 59.8935 8.64205C60.4086 8.92992 60.8045 9.31061 61.081 9.78409C61.3575 10.2576 61.4957 10.7689 61.4957 11.3182C61.4957 11.9735 61.3234 12.5322 60.9787 12.9943C60.6378 13.4564 60.1738 13.7765 59.5866 13.9545V14.0455C60.3215 14.1667 60.8954 14.4792 61.3082 14.983C61.7211 15.483 61.9276 16.1023 61.9276 16.8409C61.9276 17.4735 61.7552 18.0417 61.4105 18.5455C61.0696 19.0455 60.6037 19.4394 60.0128 19.7273C59.4219 20.0152 58.7495 20.1591 57.9957 20.1591ZM64.2741 23.2727V11.2727H65.5696V12.6591H65.7287C65.8272 12.5076 65.9635 12.3144 66.1378 12.0795C66.3158 11.8409 66.5696 11.6288 66.8991 11.4432C67.2325 11.2538 67.6832 11.1591 68.2514 11.1591C68.9863 11.1591 69.634 11.3428 70.1946 11.7102C70.7552 12.0777 71.1927 12.5985 71.5071 13.2727C71.8215 13.947 71.9787 14.7424 71.9787 15.6591C71.9787 16.5833 71.8215 17.3845 71.5071 18.0625C71.1927 18.7367 70.7571 19.2595 70.2003 19.6307C69.6435 19.9981 69.0014 20.1818 68.2741 20.1818C67.7135 20.1818 67.2647 20.089 66.9276 19.9034C66.5904 19.714 66.331 19.5 66.1491 19.2614C65.9673 19.0189 65.8272 18.8182 65.7287 18.6591H65.6151V23.2727H64.2741ZM65.5923 15.6364C65.5923 16.2955 65.6889 16.8769 65.8821 17.3807C66.0753 17.8807 66.3575 18.2727 66.7287 18.5568C67.0999 18.8371 67.5545 18.9773 68.0923 18.9773C68.6529 18.9773 69.1207 18.8295 69.4957 18.5341C69.8745 18.2348 70.1586 17.8333 70.348 17.3295C70.5412 16.822 70.6378 16.2576 70.6378 15.6364C70.6378 15.0227 70.5431 14.4697 70.3537 13.9773C70.1681 13.4811 69.8859 13.089 69.5071 12.8011C69.1321 12.5095 68.6605 12.3636 68.0923 12.3636C67.5469 12.3636 67.0885 12.5019 66.7173 12.7784C66.3461 13.0511 66.0658 13.4337 65.8764 13.9261C65.687 14.4148 65.5923 14.9848 65.5923 15.6364ZM74.6648 11.2727L76.7557 14.8409L78.8466 11.2727H80.392L77.5739 15.6364L80.392 20H78.8466L76.7557 16.6136L74.6648 20H73.1193L75.892 15.6364L73.1193 11.2727H74.6648Z" fill="white"/>
<path d="M147.295 8.36364V20H145.886V9.84091H145.818L142.977 11.7273V10.2955L145.886 8.36364H147.295ZM154.438 20.1591C153.581 20.1591 152.852 19.9261 152.25 19.4602C151.648 18.9905 151.188 18.3106 150.869 17.4205C150.551 16.5265 150.392 15.447 150.392 14.1818C150.392 12.9242 150.551 11.8504 150.869 10.9602C151.191 10.0663 151.653 9.38447 152.256 8.91477C152.862 8.44129 153.589 8.20455 154.438 8.20455C155.286 8.20455 156.011 8.44129 156.614 8.91477C157.22 9.38447 157.682 10.0663 158 10.9602C158.322 11.8504 158.483 12.9242 158.483 14.1818C158.483 15.447 158.324 16.5265 158.006 17.4205C157.688 18.3106 157.227 18.9905 156.625 19.4602C156.023 19.9261 155.294 20.1591 154.438 20.1591ZM154.438 18.9091C155.286 18.9091 155.945 18.5 156.415 17.6818C156.884 16.8636 157.119 15.697 157.119 14.1818C157.119 13.1742 157.011 12.3163 156.795 11.608C156.583 10.8996 156.277 10.3598 155.875 9.98864C155.477 9.61742 154.998 9.43182 154.438 9.43182C153.597 9.43182 152.939 9.84659 152.466 10.6761C151.992 11.5019 151.756 12.6705 151.756 14.1818C151.756 15.1894 151.862 16.0455 152.074 16.75C152.286 17.4545 152.591 17.9905 152.989 18.358C153.39 18.7254 153.873 18.9091 154.438 18.9091ZM160.665 23.2727V11.2727H161.96V12.6591H162.119C162.218 12.5076 162.354 12.3144 162.528 12.0795C162.706 11.8409 162.96 11.6288 163.29 11.4432C163.623 11.2538 164.074 11.1591 164.642 11.1591C165.377 11.1591 166.025 11.3428 166.585 11.7102C167.146 12.0777 167.583 12.5985 167.898 13.2727C168.212 13.947 168.369 14.7424 168.369 15.6591C168.369 16.5833 168.212 17.3845 167.898 18.0625C167.583 18.7367 167.148 19.2595 166.591 19.6307C166.034 19.9981 165.392 20.1818 164.665 20.1818C164.104 20.1818 163.655 20.089 163.318 19.9034C162.981 19.714 162.722 19.5 162.54 19.2614C162.358 19.0189 162.218 18.8182 162.119 18.6591H162.006V23.2727H160.665ZM161.983 15.6364C161.983 16.2955 162.08 16.8769 162.273 17.3807C162.466 17.8807 162.748 18.2727 163.119 18.5568C163.491 18.8371 163.945 18.9773 164.483 18.9773C165.044 18.9773 165.511 18.8295 165.886 18.5341C166.265 18.2348 166.549 17.8333 166.739 17.3295C166.932 16.822 167.028 16.2576 167.028 15.6364C167.028 15.0227 166.934 14.4697 166.744 13.9773C166.559 13.4811 166.277 13.089 165.898 12.8011C165.523 12.5095 165.051 12.3636 164.483 12.3636C163.938 12.3636 163.479 12.5019 163.108 12.7784C162.737 13.0511 162.456 13.4337 162.267 13.9261C162.078 14.4148 161.983 14.9848 161.983 15.6364ZM171.055 11.2727L173.146 14.8409L175.237 11.2727H176.783L173.964 15.6364L176.783 20H175.237L173.146 16.6136L171.055 20H169.51L172.283 15.6364L169.51 11.2727H171.055Z" fill="white"/>
</g>
<defs>
<linearGradient id="paint0_linear_4112_13327" x1="40.5" y1="22" x2="40.5" y2="717" gradientUnits="userSpaceOnUse">
<stop stop-color="#E2B648"/>
<stop offset="0.163" stop-color="#DAAC43"/>
<stop offset="0.422" stop-color="#BA8632"/>
<stop offset="0.703" stop-color="#E2B648"/>
<stop offset="1" stop-color="#AB742A"/>
</linearGradient>
<linearGradient id="paint1_linear_4112_13327" x1="86.5" y1="22" x2="86.5" y2="717" gradientUnits="userSpaceOnUse">
<stop stop-color="#E2B648"/>
<stop offset="0.163" stop-color="#DAAC43"/>
<stop offset="0.422" stop-color="#BA8632"/>
<stop offset="0.703" stop-color="#E2B648"/>
<stop offset="1" stop-color="#AB742A"/>
</linearGradient>
<clipPath id="clip0_4112_13327">
<rect width="358" height="717" fill="white"/>
</clipPath>
</defs>
</svg>
